<svg width="12" height="12" viewBox="0 0 12 12" fill="none" xmlns="http://www.w3.org/2000/svg">
<g clip-path="url(#clip0_1_4712)">
<path d="M10.9727 0.464398H0.922208C0.694524 0.462188 0.474945 0.545451 0.312103 0.695767C0.148524 0.845346 0.0556817 1.05019 0.0527344 1.26461V10.7618C0.0556817 10.9762 0.149261 11.1803 0.312103 11.3299C0.474945 11.4795 0.694524 11.5627 0.922208 11.5605H10.9727C11.2004 11.562 11.42 11.4787 11.5836 11.3291C11.7464 11.1788 11.8393 10.974 11.8422 10.7596V1.26166C11.8385 1.04798 11.7442 0.843872 11.5814 0.69503C11.4185 0.545451 11.2004 0.462925 10.9727 0.464398ZM3.54831 9.92398H1.79831V4.6224H3.54831V9.9225V9.92398ZM2.67884 3.90103C2.42684 3.90324 2.18294 3.81629 1.99505 3.65787C1.80716 3.50019 1.68852 3.28135 1.66273 3.04556C1.63621 2.80977 1.704 2.57324 1.85358 2.38166C2.00242 2.19008 2.222 2.05819 2.46884 2.01103C2.71568 1.96314 2.97284 2.0044 3.18947 2.12524C3.4061 2.24682 3.56747 2.43914 3.64116 2.66608C3.71558 2.89303 3.69716 3.13766 3.59031 3.35208C3.48273 3.56724 3.29484 3.73671 3.062 3.82808C2.93895 3.87524 2.80705 3.89956 2.67368 3.89956L2.67884 3.90103ZM10.1025 9.92324H8.35252V7.34429C8.35252 6.7305 8.34147 5.94061 7.44326 5.94061C6.54579 5.94061 6.39326 6.6104 6.39326 7.30524V9.92324H4.64547V4.62314H6.32326V5.35114H6.34684C6.58042 4.93482 7.15 4.49493 8.00179 4.49493C9.77389 4.49124 10.1025 5.58914 10.1025 7.01271V9.92324Z" fill="#302F2F"/>
</g>
<defs>
<clipPath id="clip0_1_4712">
<rect width="11.7895" height="11.7895" fill="white" transform="translate(0.0527344 0.104736)"/>
</clipPath>
</defs>
</svg>
