<svg aria-hidden="true" style="position: absolute; width: 0; height: 0; overflow: hidden;" version="1.1" xmlns="http://www.w3.org/2000/svg" xmlns:xlink="http://www.w3.org/1999/xlink">
<defs>
<symbol id="icon-burger" viewBox="0 0 39 32">
<path stroke-linejoin="miter" stroke-linecap="round" stroke-miterlimit="4" stroke-width="4.5714" d="M2.286 2.286h34.286"></path>
<path stroke-linejoin="miter" stroke-linecap="round" stroke-miterlimit="4" stroke-width="4.5714" d="M9.143 16h20.571"></path>
<path stroke-linejoin="miter" stroke-linecap="round" stroke-miterlimit="4" stroke-width="4.5714" d="M2.286 29.714h34.286"></path>
</symbol>
<symbol id="icon-vite" viewBox="0 0 30 32">
<path d="M5.361 21.918c-7.334-6.030-4.56-11.863-5.204-19.893-0.030-0.37 0.287-0.677 0.65-0.606 4.372 0.859 11.753 4.306 13.337 12.75 0.715 3.813 0.352 9.041 0.345 15.52-0 0.186-0.239 0.263-0.35 0.114-1.333-1.796-1.799-2.146-8.779-7.885z"></path>
<path d="M4.916 21.283c-6.287-5.197-4.187-12.481-4.441-18.983-0.014-0.362 0.299-0.654 0.653-0.581 4.098 0.844 11.308 4.407 12.774 12.22 0.66 3.518 0.612 9.593 0.622 15.645 0 0.19-0.25 0.268-0.362 0.114-1.431-1.97-3.249-3.457-9.246-8.415z"></path>
<path d="M14.526 29.707l-0.018-6.94c-0.002-0.912-0.198-1.825-0.64-2.623-5.243-9.449-13.392-7.412-13.392-7.412s0.118 5.185 4.346 8.53c2.418 1.912 3.135 2.723 5.552 4.636 1.926 1.524 3.177 3.102 3.764 3.928 0.113 0.159 0.388 0.077 0.388-0.119z"></path>
<path d="M14.526 29.707l-0.018-6.94c-0.002-0.912-0.198-1.825-0.64-2.623-5.243-9.449-13.392-7.412-13.392-7.412s0.118 5.185 4.346 8.53c2.418 1.912 3.135 2.723 5.552 4.636 1.926 1.524 3.177 3.102 3.764 3.928 0.113 0.159 0.388 0.077 0.388-0.119z"></path>
<path d="M14.272 21.107c-2.282-4.963-7.258-9.265-12.933-8.469-0.095 0.012-0.195-0.014-0.288 0.001 0.093-0.014 0.193 0.012 0.288-0 5.572-0.644 10.576 3.641 12.619 8.617 0.123 0.273 0.444 0.959 0.444 0.959l-0.089-0.577c0 0 0.094-0.259-0.042-0.53z"></path>
<path d="M14.366 21.041c-2.282-4.963-7.257-9.2-12.931-8.404-0.095 0.012-0.195-0.014-0.288 0.001 0.093-0.014 0.193 0.012 0.288-0 5.693-0.783 10.575 3.575 12.618 8.552 0.123 0.273 0.444 0.959 0.444 0.959l-0.089-0.577c0 0 0.093-0.259-0.042-0.53z"></path>
<path d="M0.846 1.421c4.372 0.859 11.753 4.306 13.337 12.75 0.714 3.806 0.458 9.239 0.456 15.714-0 0.189-0.246 0.264-0.353 0.107-0.071-0.103-0.142-0.2-0.209-0.296-0.3-0.412-0.738-0.975-1.318-1.608-1.081-1.095-2.924-2.601-7.324-6.133-7.443-5.975-4.602-11.894-5.241-19.929-0.029-0.369 0.287-0.677 0.651-0.606z"></path>
<path d="M24.122 21.8c7.166-5.563 4.99-11.377 5.268-19.944 0.009-0.284-0.186-0.536-0.47-0.532-3.187 0.040-12.334 4.372-13.349 12.913-0.48 4.038-0.649 9.039-0.494 15.526 0.004 0.175 0.221 0.253 0.333 0.118 1.604-1.919 1.84-2.746 8.712-8.080z"></path>
<path d="M24.122 21.8c7.166-5.563 4.99-11.377 5.268-19.944 0.009-0.284-0.186-0.536-0.47-0.532-3.187 0.040-12.334 4.372-13.349 12.913-0.48 4.038-0.649 9.039-0.494 15.526 0.004 0.175 0.221 0.253 0.333 0.118 1.604-1.919 1.84-2.746 8.712-8.080z"></path>
<path d="M24.744 21.069c6.287-5.197 4.187-12.481 4.441-18.983 0.014-0.362-0.299-0.654-0.653-0.581-4.098 0.844-11.308 4.407-12.774 12.22-0.66 3.518-0.612 9.593-0.622 15.645-0 0.19 0.25 0.268 0.362 0.114 1.431-1.97 3.249-3.457 9.246-8.415z"></path>
<path d="M15.134 29.559l0.018-7.005c0.002-0.912 0.198-1.825 0.641-2.623 5.243-9.449 13.392-7.412 13.392-7.412s-0.16 5.304-4.388 8.648c-2.418 1.912-2.947 2.324-5.381 4.381-1.937 1.637-3.294 3.312-3.91 4.131-0.114 0.152-0.371 0.070-0.37-0.121z"></path>
<path d="M15.134 29.559l0.018-7.005c0.002-0.912 0.198-1.825 0.641-2.623 5.243-9.449 13.392-7.412 13.392-7.412s-0.16 5.304-4.388 8.648c-2.418 1.912-2.947 2.324-5.381 4.381-1.937 1.637-3.294 3.312-3.91 4.131-0.114 0.152-0.371 0.070-0.37-0.121z"></path>
<path d="M15.388 20.892c2.282-4.963 7.258-9.265 12.933-8.469 0.095 0.012 0.195-0.014 0.288 0.001-0.093-0.014-0.193 0.012-0.288-0-5.572-0.644-10.576 3.641-12.619 8.617-0.123 0.273-0.444 0.959-0.444 0.959l0.089-0.577c0 0-0.093-0.259 0.042-0.53z"></path>
<path d="M15.379 20.769c2.282-4.963 7.17-9.142 12.845-8.346 0.095 0.012 0.195-0.014 0.288 0.001-0.093-0.014-0.193 0.012-0.288-0-5.693-0.783-10.575 3.575-12.618 8.552-0.123 0.273-0.444 0.959-0.444 0.959l-0-0.517c0 0 0.082-0.376 0.218-0.648z"></path>
</symbol>
<symbol id="icon-close" viewBox="0 0 32 32">
<path stroke-linejoin="miter" stroke-linecap="round" stroke-miterlimit="4" stroke-width="4.9231" d="M2.462 28.878l26.109-26.109"></path>
<path stroke-linejoin="miter" stroke-linecap="round" stroke-miterlimit="4" stroke-width="4.9231" d="M29.447 27.738l-26.913-25.279"></path>
</symbol>
</defs>
</svg>
