<svg aria-hidden="true" style="position: absolute; width: 0; height: 0; overflow: hidden;" version="1.1" xmlns="http://www.w3.org/2000/svg" xmlns:xlink="http://www.w3.org/1999/xlink">
<defs>
<symbol id="icon-burger" viewBox="0 0 39 32">
<path stroke-linejoin="miter" stroke-linecap="round" stroke-miterlimit="4" stroke-width="4.5714" d="M2.286 2.286h34.286"></path>
<path stroke-linejoin="miter" stroke-linecap="round" stroke-miterlimit="4" stroke-width="4.5714" d="M9.143 16h20.571"></path>
<path stroke-linejoin="miter" stroke-linecap="round" stroke-miterlimit="4" stroke-width="4.5714" d="M2.286 29.714h34.286"></path>
</symbol>
<symbol id="icon-vite" viewBox="0 0 30 32">
<path d="M5.361 21.918c-7.334-6.030-4.56-11.863-5.204-19.893-0.030-0.37 0.287-0.677 0.65-0.606 4.372 0.859 11.753 4.306 13.337 12.75 0.715 3.813 0.352 9.041 0.345 15.52-0 0.186-0.239 0.263-0.35 0.114-1.333-1.796-1.799-2.146-8.779-7.885z"></path>
<path d="M4.916 21.283c-6.287-5.197-4.187-12.481-4.441-18.983-0.014-0.362 0.299-0.654 0.653-0.581 4.098 0.844 11.308 4.407 12.774 12.22 0.66 3.518 0.612 9.593 0.622 15.645 0 0.19-0.25 0.268-0.362 0.114-1.431-1.97-3.249-3.457-9.246-8.415z"></path>
<path d="M14.526 29.707l-0.018-6.94c-0.002-0.912-0.198-1.825-0.64-2.623-5.243-9.449-13.392-7.412-13.392-7.412s0.118 5.185 4.346 8.53c2.418 1.912 3.135 2.723 5.552 4.636 1.926 1.524 3.177 3.102 3.764 3.928 0.113 0.159 0.388 0.077 0.388-0.119z"></path>
<path d="M14.526 29.707l-0.018-6.94c-0.002-0.912-0.198-1.825-0.64-2.623-5.243-9.449-13.392-7.412-13.392-7.412s0.118 5.185 4.346 8.53c2.418 1.912 3.135 2.723 5.552 4.636 1.926 1.524 3.177 3.102 3.764 3.928 0.113 0.159 0.388 0.077 0.388-0.119z"></path>
<path d="M14.272 21.107c-2.282-4.963-7.258-9.265-12.933-8.469-0.095 0.012-0.195-0.014-0.288 0.001 0.093-0.014 0.193 0.012 0.288-0 5.572-0.644 10.576 3.641 12.619 8.617 0.123 0.273 0.444 0.959 0.444 0.959l-0.089-0.577c0 0 0.094-0.259-0.042-0.53z"></path>
<path d="M14.366 21.041c-2.282-4.963-7.257-9.2-12.931-8.404-0.095 0.012-0.195-0.014-0.288 0.001 0.093-0.014 0.193 0.012 0.288-0 5.693-0.783 10.575 3.575 12.618 8.552 0.123 0.273 0.444 0.959 0.444 0.959l-0.089-0.577c0 0 0.093-0.259-0.042-0.53z"></path>
<path d="M0.846 1.421c4.372 0.859 11.753 4.306 13.337 12.75 0.714 3.806 0.458 9.239 0.456 15.714-0 0.189-0.246 0.264-0.353 0.107-0.071-0.103-0.142-0.2-0.209-0.296-0.3-0.412-0.738-0.975-1.318-1.608-1.081-1.095-2.924-2.601-7.324-6.133-7.443-5.975-4.602-11.894-5.241-19.929-0.029-0.369 0.287-0.677 0.651-0.606z"></path>
<path d="M24.122 21.8c7.166-5.563 4.99-11.377 5.268-19.944 0.009-0.284-0.186-0.536-0.47-0.532-3.187 0.040-12.334 4.372-13.349 12.913-0.48 4.038-0.649 9.039-0.494 15.526 0.004 0.175 0.221 0.253 0.333 0.118 1.604-1.919 1.84-2.746 8.712-8.080z"></path>
<path d="M24.122 21.8c7.166-5.563 4.99-11.377 5.268-19.944 0.009-0.284-0.186-0.536-0.47-0.532-3.187 0.040-12.334 4.372-13.349 12.913-0.48 4.038-0.649 9.039-0.494 15.526 0.004 0.175 0.221 0.253 0.333 0.118 1.604-1.919 1.84-2.746 8.712-8.080z"></path>
<path d="M24.744 21.069c6.287-5.197 4.187-12.481 4.441-18.983 0.014-0.362-0.299-0.654-0.653-0.581-4.098 0.844-11.308 4.407-12.774 12.22-0.66 3.518-0.612 9.593-0.622 15.645-0 0.19 0.25 0.268 0.362 0.114 1.431-1.97 3.249-3.457 9.246-8.415z"></path>
<path d="M15.134 29.559l0.018-7.005c0.002-0.912 0.198-1.825 0.641-2.623 5.243-9.449 13.392-7.412 13.392-7.412s-0.16 5.304-4.388 8.648c-2.418 1.912-2.947 2.324-5.381 4.381-1.937 1.637-3.294 3.312-3.91 4.131-0.114 0.152-0.371 0.070-0.37-0.121z"></path>
<path d="M15.134 29.559l0.018-7.005c0.002-0.912 0.198-1.825 0.641-2.623 5.243-9.449 13.392-7.412 13.392-7.412s-0.16 5.304-4.388 8.648c-2.418 1.912-2.947 2.324-5.381 4.381-1.937 1.637-3.294 3.312-3.91 4.131-0.114 0.152-0.371 0.070-0.37-0.121z"></path>
<path d="M15.388 20.892c2.282-4.963 7.258-9.265 12.933-8.469 0.095 0.012 0.195-0.014 0.288 0.001-0.093-0.014-0.193 0.012-0.288-0-5.572-0.644-10.576 3.641-12.619 8.617-0.123 0.273-0.444 0.959-0.444 0.959l0.089-0.577c0 0-0.093-0.259 0.042-0.53z"></path>
<path d="M15.379 20.769c2.282-4.963 7.17-9.142 12.845-8.346 0.095 0.012 0.195-0.014 0.288 0.001-0.093-0.014-0.193 0.012-0.288-0-5.693-0.783-10.575 3.575-12.618 8.552-0.123 0.273-0.444 0.959-0.444 0.959l-0-0.517c0 0 0.082-0.376 0.218-0.648z"></path>
</symbol>
<symbol id="icon-close" viewBox="0 0 32 32">
<path stroke-linejoin="miter" stroke-linecap="round" stroke-miterlimit="4" stroke-width="4.9231" d="M2.462 28.878l26.109-26.109"></path>
<path stroke-linejoin="miter" stroke-linecap="round" stroke-miterlimit="4" stroke-width="4.9231" d="M29.447 27.738l-26.913-25.279"></path>
</symbol>
<symbol id="icon-ln" viewBox="0 0 32 32">
<path d="M29.261 1.238h-26.801c-0.607-0.006-1.193 0.216-1.627 0.617-0.436 0.399-0.684 0.945-0.692 1.517v25.326c0.008 0.572 0.257 1.116 0.692 1.515s1.020 0.621 1.627 0.615h26.801c0.607 0.004 1.193-0.218 1.629-0.617 0.434-0.401 0.682-0.947 0.69-1.519v-25.328c-0.010-0.57-0.261-1.114-0.695-1.511-0.434-0.399-1.016-0.619-1.623-0.615zM9.462 26.464h-4.667v-14.138h4.667v14.138zM7.144 10.403c-0.672 0.006-1.322-0.226-1.823-0.648-0.501-0.42-0.817-1.004-0.886-1.633-0.071-0.629 0.11-1.26 0.509-1.77 0.397-0.511 0.982-0.863 1.641-0.988 0.658-0.128 1.344-0.018 1.922 0.305 0.578 0.324 1.008 0.837 1.204 1.442 0.198 0.605 0.149 1.258-0.136 1.829-0.287 0.574-0.788 1.026-1.409 1.269-0.328 0.126-0.68 0.191-1.036 0.191l0.014 0.004zM26.94 26.462h-4.667v-6.877c0-1.637-0.029-3.743-2.425-3.743-2.393 0-2.8 1.786-2.8 3.639v6.981h-4.661v-14.134h4.474v1.941h0.063c0.623-1.11 2.142-2.283 4.413-2.283 4.726-0.010 5.602 2.918 5.602 6.714v7.761z"></path>
</symbol>
<symbol id="icon-x" viewBox="0 0 35 32">
<path d="M25.322 1.428h4.93l-10.771 12.771 12.673 17.373h-9.92l-7.772-10.54-8.891 10.54h-4.934l11.522-13.659-12.156-16.486h10.175l7.022 9.635 8.124-9.635zM23.592 28.512h2.733l-17.637-24.183h-2.93l17.834 24.183z"></path>
</symbol>
<symbol id="icon-g" viewBox="0 0 40 32">
<path d="M33.956 3.606c-2.547-1.089-5.233-1.861-7.989-2.297-0.026 0-0.051 0.004-0.073 0.014-0.024 0.010-0.045 0.022-0.061 0.039-0.336 0.57-0.729 1.313-0.992 1.882-2.979-0.415-6.005-0.415-8.982 0-0.297-0.646-0.633-1.275-1.010-1.882-0.022-0.033-0.075-0.053-0.134-0.053-2.757 0.44-5.443 1.21-7.989 2.297-0.020 0-0.037 0.018-0.057 0.033-5.089 7.028-6.494 13.864-5.8 20.632 0 0.035 0.020 0.069 0.057 0.088 3.366 2.279 6.606 3.661 9.807 4.574 0.053 0.018 0.11 0 0.13-0.033 0.749-0.949 1.423-1.951 2.002-3.006 0.037-0.069 0-0.138-0.075-0.153-1.055-0.379-2.083-0.829-3.069-1.348-0.075-0.033-0.075-0.138-0.020-0.191 0.206-0.138 0.413-0.293 0.619-0.43 0.018-0.016 0.039-0.024 0.063-0.028 0.022-0.004 0.045 0 0.067 0.010 6.437 2.712 13.381 2.712 19.746 0 0.022-0.010 0.045-0.014 0.069-0.010 0.022 0.004 0.043 0.012 0.061 0.028 0.206 0.155 0.411 0.293 0.617 0.45 0.075 0.049 0.075 0.153-0.018 0.189-0.973 0.536-2.004 0.967-3.069 1.346-0.075 0.020-0.094 0.104-0.075 0.157 0.599 1.051 1.273 2.053 2.002 3.002 0.057 0.018 0.114 0.035 0.169 0.018 3.527-0.992 6.85-2.541 9.825-4.574 0.018-0.008 0.031-0.022 0.043-0.035 0.010-0.016 0.014-0.033 0.014-0.053 0.823-7.818-1.368-14.605-5.801-20.632-0.022-0.016-0.039-0.033-0.077-0.033zM13.839 20.145c-1.928 0-3.537-1.639-3.537-3.661 0-2.018 1.572-3.659 3.537-3.659 1.983 0 3.555 1.658 3.537 3.661 0 2.020-1.572 3.659-3.537 3.659zM26.882 20.145c-1.927 0-3.537-1.639-3.537-3.661 0-2.018 1.572-3.659 3.537-3.659 1.985 0 3.557 1.658 3.537 3.661 0 2.020-1.552 3.659-3.537 3.659z"></path>
</symbol>
<symbol id="icon-telegram" viewBox="0 0 32 32">
<path d="M30.311 16.033c0 8.372-6.786 15.158-15.158 15.158s-15.158-6.786-15.158-15.158c0-8.372 6.786-15.158 15.158-15.158s15.158 6.786 15.158 15.158zM15.697 12.065c-1.475 0.613-4.421 1.883-8.84 3.808-0.717 0.285-1.093 0.564-1.127 0.837-0.059 0.462 0.519 0.643 1.305 0.891 0.108 0.034 0.219 0.069 0.332 0.104 0.775 0.253 1.816 0.547 2.356 0.559 0.492 0.010 1.039-0.192 1.644-0.608 4.13-2.787 6.26-4.195 6.395-4.226 0.094-0.022 0.224-0.049 0.313 0.030s0.079 0.227 0.071 0.268c-0.057 0.244-2.326 2.353-3.498 3.443-0.367 0.34-0.627 0.583-0.679 0.637-0.12 0.125-0.241 0.241-0.357 0.352-0.719 0.694-1.258 1.214 0.030 2.063 0.62 0.408 1.115 0.744 1.608 1.081 0.539 0.367 1.078 0.734 1.775 1.191 0.177 0.116 0.347 0.238 0.51 0.354 0.628 0.448 1.192 0.851 1.89 0.787 0.406-0.037 0.824-0.418 1.036-1.555 0.502-2.685 1.491-8.5 1.718-10.897 0.020-0.21-0.005-0.48-0.025-0.598s-0.062-0.285-0.216-0.409c-0.182-0.148-0.461-0.178-0.588-0.177-0.569 0.010-1.445 0.315-5.654 2.065z"></path>
</symbol>
</defs>
</svg>
