<svg width="15" height="12" viewBox="0 0 15 12" fill="none" xmlns="http://www.w3.org/2000/svg">
<g clip-path="url(#clip0_1_4704)">
<path d="M12.7334 1.35234C11.7784 0.944125 10.7712 0.654546 9.73737 0.490967C9.7278 0.490967 9.71822 0.49244 9.71011 0.496125C9.70127 0.499809 9.69316 0.50423 9.68727 0.510862C9.56127 0.724546 9.4139 1.00307 9.31516 1.21676C8.19811 1.06128 7.06337 1.06128 5.94706 1.21676C5.8358 0.974335 5.7098 0.738546 5.56832 0.510862C5.56022 0.498335 5.54032 0.490967 5.51822 0.490967C4.48443 0.656019 3.47716 0.944862 2.52222 1.35234C2.51485 1.35234 2.50822 1.35897 2.50085 1.36486C0.592427 4.00055 0.065585 6.56402 0.32569 9.1017C0.32569 9.11497 0.333059 9.12749 0.347059 9.13486C1.60927 9.9896 2.82432 10.5076 4.02464 10.8502C4.04453 10.8569 4.0659 10.8502 4.07327 10.8377C4.35401 10.4818 4.60674 10.106 4.82411 9.71033C4.83811 9.68455 4.82411 9.65876 4.79611 9.65286C4.40043 9.51065 4.01506 9.34191 3.64516 9.14739C3.61716 9.13486 3.61716 9.09581 3.6378 9.07591C3.71516 9.02433 3.79253 8.96612 3.8699 8.91455C3.87653 8.90865 3.88464 8.9057 3.89348 8.90423C3.90159 8.90276 3.91043 8.90423 3.91853 8.90791C6.33243 9.92476 8.93643 9.92476 11.3231 8.90791C11.3312 8.90423 11.34 8.90276 11.3488 8.90423C11.357 8.9057 11.3651 8.90865 11.3717 8.91455C11.4491 8.97276 11.5257 9.02433 11.6031 9.08328C11.6311 9.1017 11.6311 9.14076 11.5964 9.15402C11.2317 9.35518 10.8448 9.51655 10.4455 9.65876C10.4175 9.66613 10.4101 9.69781 10.4175 9.7177C10.6422 10.1119 10.895 10.4877 11.1683 10.8436C11.1897 10.8502 11.2111 10.8569 11.2317 10.8502C12.5543 10.4781 13.8003 9.89749 14.9159 9.13486C14.9225 9.13191 14.9277 9.12676 14.9321 9.1216C14.9358 9.1157 14.9373 9.10907 14.9373 9.1017C15.246 6.16981 14.4244 3.62476 12.7621 1.36486C12.754 1.35897 12.7474 1.35234 12.7334 1.35234ZM5.18958 7.55434C4.46674 7.55434 3.86327 6.93981 3.86327 6.1816C3.86327 5.42486 4.45274 4.8096 5.18958 4.8096C5.93306 4.8096 6.52253 5.43149 6.5159 6.18233C6.5159 6.93981 5.92643 7.55434 5.18958 7.55434ZM10.0807 7.55434C9.3579 7.55434 8.75443 6.93981 8.75443 6.1816C8.75443 5.42486 9.3439 4.8096 10.0807 4.8096C10.825 4.8096 11.4144 5.43149 11.4071 6.18233C11.4071 6.93981 10.825 7.55434 10.0807 7.55434Z" fill="#302F2F"/>
</g>
<defs>
<clipPath id="clip0_1_4704">
<rect width="14.7368" height="11.0526" fill="white" transform="translate(0.263672 0.475586)"/>
</clipPath>
</defs>
</svg>
