<svg width="14" height="14" viewBox="0 0 14 14" fill="none" xmlns="http://www.w3.org/2000/svg">
<path d="M13.2612 7.01439C13.2612 10.6772 10.2925 13.646 6.62963 13.646C2.96678 13.646 -0.00195312 10.6772 -0.00195312 7.01439C-0.00195312 3.35155 2.96678 0.382812 6.62963 0.382812C10.2925 0.382812 13.2612 3.35155 13.2612 7.01439ZM6.86763 5.27839C6.22215 5.5466 4.93342 6.10218 2.99994 6.94439C2.68605 7.06892 2.52173 7.19123 2.50699 7.3106C2.4812 7.5125 2.73394 7.59208 3.07805 7.70039C3.1252 7.71513 3.17384 7.7306 3.2232 7.74608C3.56215 7.8566 4.01752 7.98555 4.25405 7.99071C4.4692 7.99513 4.70868 7.90671 4.9732 7.72471C6.77994 6.50523 7.71205 5.88923 7.77099 5.87597C7.81226 5.86639 7.86899 5.8546 7.90805 5.88923C7.9471 5.92387 7.94268 5.98871 7.93899 6.00639C7.91394 6.11323 6.92141 7.03576 6.40857 7.5125C6.24794 7.66134 6.13447 7.76744 6.11163 7.79102C6.05931 7.84555 6.00626 7.89639 5.95542 7.94502C5.64078 8.2486 5.40499 8.47629 5.96868 8.84765C6.23984 9.02597 6.45647 9.17334 6.67236 9.32071C6.90815 9.48134 7.14394 9.64197 7.44899 9.84165C7.52636 9.8925 7.60078 9.94555 7.67226 9.99639C7.9471 10.1924 8.19394 10.3685 8.49899 10.3405C8.67657 10.3243 8.85931 10.1578 8.95215 9.66039C9.17173 8.48586 9.60426 5.94155 9.70373 4.89302C9.71257 4.80092 9.70152 4.68302 9.69268 4.63144C9.68384 4.57986 9.66542 4.50692 9.59836 4.45239C9.51878 4.38755 9.39647 4.37429 9.3412 4.37502C9.09215 4.37944 8.70899 4.51281 6.86763 5.27839Z" fill="#302F2F"/>
</svg>
